<?xml version="1.0" encoding="UTF-8"?>
<svg width="400" height="300" xmlns="http://www.w3.org/2000/svg">
 <!-- Created with SVG-edit - http://svg-edit.googlecode.com/ -->
 <g>
  <title>Layer 1</title>
  <rect id="svg_1" height="310.000007" width="411.000003" y="-5" x="-6" stroke-linecap="null" stroke-linejoin="null" stroke-dasharray="null" stroke-width="0" stroke="#000000" fill="#d4aaff"/>
  <path id="svg_4" d="m135.881912,225.122192l0,-151.935707l0,0c0,-6.453827 5.228943,-11.687889 11.682419,-11.687889l140.247498,0c6.453796,0 11.688171,5.234062 11.688171,11.687889c0,6.454025 -5.234375,11.687538 -11.688171,11.687538l-11.683105,0l0,151.936523c0,6.453598 -5.2341,11.688049 -11.687866,11.688049l-140.253235,0l0,0c-6.453247,0 -11.688171,-5.234451 -11.688171,-11.688049c0,-6.453522 5.234924,-11.688354 11.688171,-11.688354l11.69429,0zm23.370392,-163.623596l0,0c6.454498,0 11.688278,5.234062 11.688278,11.687889c0,6.454025 -5.23378,11.687538 -11.688278,11.687538c-3.223755,0 -5.843903,-2.620079 -5.843903,-5.843399c0,-3.229454 2.620148,-5.844139 5.843903,-5.844139l11.688278,0m116.871246,11.687538l-128.559525,0m-23.370392,140.248169l0,0c3.223755,0 5.838287,2.620239 5.838287,5.843552c0,3.229965 -2.614532,5.844803 -5.838287,5.844803l11.682419,0m-11.682419,11.688049l0,0c6.448166,0 11.682419,-5.234451 11.682419,-11.688049l0,-11.688354" stroke-linecap="null" stroke-linejoin="null" stroke-dasharray="null" stroke-width="0" stroke="#b490db" fill="#b592db"/>
  <path id="svg_3" d="m125.536209,216.665161l0,-151.935707l0,0c0,-6.453827 5.228943,-11.687889 11.682419,-11.687889l140.247498,0c6.453796,0 11.688171,5.234062 11.688171,11.687889c0,6.454025 -5.234375,11.687538 -11.688171,11.687538l-11.683105,0l0,151.936523c0,6.453598 -5.2341,11.688049 -11.687866,11.688049l-140.253242,0l0,0c-6.453239,0 -11.688164,-5.234451 -11.688164,-11.688049c0,-6.453522 5.234924,-11.688354 11.688164,-11.688354l11.694298,0zm23.370392,-163.623596l0,0c6.454498,0 11.688278,5.234062 11.688278,11.687889c0,6.454025 -5.23378,11.687538 -11.688278,11.687538c-3.223755,0 -5.843903,-2.620079 -5.843903,-5.843399c0,-3.229454 2.620148,-5.844139 5.843903,-5.844139l11.688278,0m116.871246,11.687538l-128.559525,0m-23.370392,140.248169l0,0c3.223755,0 5.838287,2.620239 5.838287,5.843552c0,3.229965 -2.614532,5.844803 -5.838287,5.844803l11.682419,0m-11.682419,11.688049l0,0c6.448166,0 11.682419,-5.234451 11.682419,-11.688049l0,-11.688354" stroke-linecap="null" stroke-linejoin="null" stroke-dasharray="null" stroke-width="2" stroke="#d4aaff" fill="#ffffff"/>
  <line stroke-width="2" transform="rotate(20, 202, 109.25)" id="svg_7" y2="125.24838" x2="159.145839" y1="93.251614" x1="244.854159" stroke-linecap="null" stroke-linejoin="null" stroke-dasharray="null" stroke="#cccccc" fill="none"/>
  <line id="svg_8" stroke-width="2" transform="rotate(20, 202, 125.25)" y2="141.24838" x2="159.145839" y1="109.251614" x1="244.854159" stroke-linecap="null" stroke-linejoin="null" stroke-dasharray="null" stroke="#cccccc" fill="none"/>
  <line id="svg_9" stroke-width="2" transform="rotate(20, 202.25, 141.25)" y2="157.24838" x2="159.395839" y1="125.251614" x1="245.104159" stroke-linecap="null" stroke-linejoin="null" stroke-dasharray="null" stroke="#cccccc" fill="none"/>
  <line id="svg_10" stroke-width="2" transform="rotate(20, 202.125, 156.875)" y2="172.87338" x2="159.270839" y1="140.876614" x1="244.979159" stroke-linecap="null" stroke-linejoin="null" stroke-dasharray="null" stroke="#cccccc" fill="none"/>
  <line id="svg_11" stroke-width="2" transform="rotate(20, 202.125, 172.876)" y2="188.87338" x2="159.270839" y1="156.876614" x1="244.979159" stroke-linecap="null" stroke-linejoin="null" stroke-dasharray="null" stroke="#cccccc" fill="none"/>
  <line id="svg_12" stroke-width="2" transform="rotate(20, 202.375, 188.876)" y2="204.87338" x2="159.520839" y1="172.876614" x1="245.229159" stroke-linecap="null" stroke-linejoin="null" stroke-dasharray="null" stroke="#cccccc" fill="none"/>
  <line id="svg_13" stroke-width="2" transform="rotate(20, 227.75, 205.375)" y2="212.012028" x2="209.15638" y1="198.73814" x1="246.344199" stroke-linecap="null" stroke-linejoin="null" stroke-dasharray="null" stroke="#cccccc" fill="none"/>
 </g>
</svg>