<?xml version="1.0" encoding="UTF-8"?>
<svg width="400" height="300" xmlns="http://www.w3.org/2000/svg">
 <!-- Created with SVG-edit - http://svg-edit.googlecode.com/ -->

 <g>
  <title>Layer 1</title>
  <rect fill="#00bf5f" stroke="#000000" stroke-width="0" stroke-dasharray="null" stroke-linejoin="null" stroke-linecap="null" x="-15" y="-4" width="422.99998" height="311.00001" id="svg_2"/>
  <path id="svg_4" fill="#00a04a" stroke="#000000" stroke-width="0" d="m134.146698,102.039413l0,0c0,-9.702332 7.678314,-17.567131 17.153839,-17.567131l7.791534,0l0,0l37.426239,0l70.180176,0c4.548035,0 8.908051,1.848907 12.129028,5.145172c3.212891,3.293327 5.024597,7.762192 5.024597,12.421967l0,43.911934l0,0l0,26.346222l0,0c0,9.702469 -7.677856,17.567017 -17.153625,17.567017l-70.180176,0l-48.887085,44.66449l11.460846,-44.66449l-7.791534,0c-9.475525,0 -17.153839,-7.864548 -17.153839,-17.567017l0,0l0,-26.346222l0,0l0,-43.911934l0,-0.000008z"/>
  <path fill="#ffffff" stroke="#000000" stroke-width="0" d="m126.375221,93.740585l0,0c0,-9.702332 7.678307,-17.567131 17.153831,-17.567131l7.791534,0l0,0l37.426239,0l70.180176,0c4.548035,0 8.908051,1.848907 12.129028,5.145172c3.212891,3.293327 5.024597,7.762192 5.024597,12.421967l0,43.911934l0,0l0,26.346222l0,0c0,9.702469 -7.677856,17.567017 -17.153625,17.567017l-70.180176,0l-48.887085,44.66449l11.460846,-44.66449l-7.791534,0c-9.475525,0 -17.153831,-7.864548 -17.153831,-17.567017l0,0l0,-26.346222l0,0l0,-43.911934l0,-0.000008z" id="svg_1"/>
 </g>
</svg>