<?xml version="1.0" encoding="UTF-8"?>
<svg width="400" height="300" xmlns="http://www.w3.org/2000/svg">
 <!-- Created with SVG-edit - http://svg-edit.googlecode.com/ -->
 <g>
  <title>Layer 1</title>
  <rect id="svg_1" height="306.999992" width="410.000005" y="-3" x="-3" stroke-width="0" stroke="#000000" fill="#007f7f"/>
  <path id="svg_3" d="m294.296753,154.272949l-20.568481,-20.525146l0,-49.08136l-17.615753,0l0,31.466034l-41.136566,-41.13443l-79.27478,79.274902l18.887543,-0.449127l0,80.178131l119.999939,0l0,-79.729004l19.708099,0zm-79.320801,68.258636l-39.123749,0l0,-46.993011l39.123749,0l0,46.993011zm38.063965,-20.117737l-25.729858,0l0,-27.164246l25.729858,0l0,27.164246z" stroke-linecap="null" stroke-linejoin="null" stroke-dasharray="null" stroke-width="0" stroke="#000000" fill="#006060"/>
  <path id="svg_2" d="m281.093628,147.726074l-20.568481,-20.525146l0,-49.08136l-17.615753,0l0,31.466034l-41.136566,-41.13443l-79.27478,79.274902l18.887543,-0.449127l0,80.178131l119.999939,0l0,-79.729004l19.708099,0zm-79.320801,68.258636l-39.123749,0l0,-46.993011l39.123749,0l0,46.993011zm38.063965,-20.117737l-25.729858,0l0,-27.164246l25.729858,0l0,27.164246z" stroke-linecap="null" stroke-linejoin="null" stroke-dasharray="null" stroke-width="0" stroke="#000000" fill="#ffffff"/>
 </g>
</svg>