<?xml version="1.0" encoding="UTF-8"?>
<svg width="400" height="300" xmlns="http://www.w3.org/2000/svg">
 <!-- Created with SVG-edit - http://svg-edit.googlecode.com/ -->

 <g>
  <title>Layer 1</title>
  <rect id="svg_1" height="306.999986" width="404" y="-4" x="-3" stroke-width="0" stroke="#000000" fill="#ff5656"/>
  <path id="svg_3" d="m172.819641,215.748566c0,0 5.254211,-23.753326 0,-31.806961c-5.257568,-8.056427 -7.376587,-13.427048 -18.950241,-17.26918s-7.373306,-3.055374 -15.769485,-2.682755c-8.432434,0.413254 -15.42868,5.368896 -15.42868,8.052948c0,0 -5.29541,0.372803 -7.374756,2.686996c-2.118179,2.312775 -5.63623,13.011246 -5.63623,15.698364s1.776657,20.692657 3.518051,24.534042l-2.082321,0.786545c-1.737793,22.221741 6.998245,24.905502 6.998245,24.905502c3.175446,20.696396 6.316315,11.857452 6.316315,17.227158s-3.140869,3.469238 -3.140869,3.469238s-2.79686,8.426636 -9.832764,11.486755c-6.994736,3.054871 -45.947937,19.537323 -49.08728,22.963165c-3.176193,3.470978 -2.836136,19.540741 -2.836136,19.540741l166.969086,0c0,0 0.378448,-16.069763 -2.797943,-19.540741c-3.177094,-3.425842 -42.092178,-19.908295 -49.127594,-22.963165c-6.994965,-3.06012 -9.794769,-11.486755 -9.794769,-11.486755s-3.175201,1.899902 -3.175201,-3.469238s3.175201,3.469238 6.312714,-17.227158c0,0 8.776062,-2.683762 7.037262,-24.905502l-2.117401,0z" stroke-linecap="null" stroke-linejoin="null" stroke-dasharray="null" stroke-width="0" stroke="#000000" fill="#d84949"/>
  <path id="svg_2" d="m165.913391,210.037628c0,0 5.254211,-23.753326 0,-31.806961c-5.257568,-8.056427 -7.376587,-13.427048 -18.950241,-17.26918s-7.373306,-3.055374 -15.769485,-2.682755c-8.432442,0.413254 -15.428673,5.368896 -15.428673,8.052948c0,0 -5.295425,0.372803 -7.374771,2.686996c-2.118172,2.312775 -5.636215,13.011246 -5.636215,15.698364s1.776649,20.692657 3.518044,24.534042l-2.082314,0.786545c-1.737793,22.221741 6.998238,24.905502 6.998238,24.905502c3.175446,20.696396 6.316315,11.857452 6.316315,17.227142s-3.140869,3.469254 -3.140869,3.469254s-2.796867,8.426636 -9.832764,11.486755c-6.994736,3.054871 -45.947929,19.537323 -49.08728,22.963165c-3.176186,3.470978 -2.836136,19.540741 -2.836136,19.540741l166.969086,0c0,0 0.378448,-16.069763 -2.797943,-19.540741c-3.177094,-3.425842 -42.092178,-19.908295 -49.127594,-22.963165c-6.994965,-3.06012 -9.794769,-11.486755 -9.794769,-11.486755s-3.175201,1.899902 -3.175201,-3.469254s3.175201,3.469254 6.312714,-17.227142c0,0 8.776062,-2.683762 7.037262,-24.905502l-2.117401,0z" stroke-linecap="null" stroke-linejoin="null" stroke-dasharray="null" stroke-width="0" stroke="#000000" fill="#ffffff"/>
  <path id="svg_6" d="m189.324799,174.120911c0,-1.108643 1.225174,-2.009109 2.73465,-2.009109c1.514175,0 2.73555,0.900467 2.73555,2.009109c0,1.114059 -1.221375,2.014435 -2.73555,2.014435c-1.509476,0 -2.73465,-0.900375 -2.73465,-2.014435zm5.604355,-14.452438c0,-2.778625 3.063049,-5.028168 6.839905,-5.028168c3.775726,0 6.834442,2.249542 6.834442,5.028168c0,2.776352 -3.058716,5.028732 -6.834442,5.028732c-3.776855,0 -6.839905,-2.25238 -6.839905,-5.028732zm12.996536,-21.915695c0,-7.68129 10.645721,-13.902634 23.792023,-13.902634c13.141327,0 23.792465,6.221344 23.792465,13.902634c0,7.682159 -10.651138,13.906403 -23.792465,13.906403c-13.146301,0 -23.792023,-6.224243 -23.792023,-13.906403zm-20.424026,-62.9422c0,-33.122299 36.474991,-59.948463 81.498276,-59.948463c45.023071,0 81.498413,26.826164 81.498413,59.948463c0,33.118759 -36.475342,59.947708 -81.498413,59.947708c-45.023285,0 -81.498276,-26.828949 -81.498276,-59.947708z" stroke-linecap="null" stroke-linejoin="null" stroke-dasharray="null" stroke-width="0" stroke="#000000" fill="#d84949"/>
  <path id="svg_4" d="m182.809174,166.859192c0,-1.108643 1.225174,-2.009109 2.73465,-2.009109c1.514175,0 2.73555,0.900467 2.73555,2.009109c0,1.114059 -1.221375,2.014435 -2.73555,2.014435c-1.509476,0 -2.73465,-0.900375 -2.73465,-2.014435zm5.604355,-14.452438c0,-2.778625 3.063049,-5.028168 6.839905,-5.028168c3.775726,0 6.834442,2.249542 6.834442,5.028168c0,2.776352 -3.058716,5.028732 -6.834442,5.028732c-3.776855,0 -6.839905,-2.25238 -6.839905,-5.028732zm12.996536,-21.915695c0,-7.68129 10.645721,-13.902634 23.792023,-13.902634c13.141327,0 23.792465,6.221344 23.792465,13.902634c0,7.682159 -10.651138,13.906403 -23.792465,13.906403c-13.146301,0 -23.792023,-6.224243 -23.792023,-13.906403zm-20.424026,-62.942192c0,-33.122307 36.474991,-59.948471 81.498276,-59.948471c45.023071,0 81.498413,26.826164 81.498413,59.948471c0,33.118752 -36.475342,59.947701 -81.498413,59.947701c-45.023285,0 -81.498276,-26.828949 -81.498276,-59.947701z" stroke-linecap="null" stroke-linejoin="null" stroke-dasharray="null" stroke-width="0" stroke="#000000" fill="#ffffff"/>
  <path id="svg_7" d="m259.148682,114.551147c-5.492874,-1.457092 -8.677505,-7.449562 -8.29895,-12.883385c-0.142334,-7.100807 0.514221,-14.569359 -2.880981,-21.096954c-1.935013,-4.873573 -5.232834,-9.176895 -6.605133,-14.25528c-1.716965,-7.879833 0.401352,-16.810905 6.772156,-22.100067c7.182465,-6.155994 18.654999,-6.959129 26.56601,-1.727024c5.578033,3.841461 9.60321,10.180065 9.450562,17.094761c0.657349,5.167809 -1.384155,10.028122 -3.782288,14.470306c-1.71991,3.576309 -3.725677,7.075859 -5.283569,10.691902c-0.414429,7.415817 -0.179504,14.900269 -1.294647,22.251366c-1.857117,5.696434 -8.861237,9.569756 -14.643158,7.554375zm14.511047,-13.25853c-3.263702,-1.759811 -7.944977,-0.615761 -11.736847,-0.995293c-3.095245,0.618019 -8.596161,-1.268341 -10.241394,1.563858c3.765198,1.47274 8.185089,0.369804 12.191589,0.612282c3.205505,-0.306755 6.895081,0.292824 9.786652,-1.180847zm-0.246613,-3.307388c0.480682,-4.465324 -6.580658,-2.187057 -9.449707,-2.851952c-3.791351,0.769379 -9.836807,-1.643684 -12.22316,1.785919c1.415634,3.447205 7.72551,1.023094 11.035324,1.787025c3.534119,-0.125381 7.198639,0.126884 10.637543,-0.720993l0,0zm0.045166,-7.823685c0.929596,-8.695831 6.248138,-15.936783 9.329926,-23.89296c2.528809,-9.524532 -2.485809,-20.406799 -11.560303,-24.406559c-9.039703,-4.476685 -21.073471,-1.093971 -26.180283,7.679485c-4.922256,7.249058 -3.980988,17.096771 0.826828,24.143753c3.430283,6.16082 6.1689,13.084625 5.721008,20.253998c7.123047,0 14.242828,0 21.36969,0c0.161011,-1.259628 0.325684,-2.51741 0.493134,-3.777718zm-15.769104,-12.321289c-2.818787,-4.905983 -5.716507,-9.849625 -7.683746,-15.166901c1.77063,-2.287663 2.281845,-4.83374 2.83168,-7.521896c4.958908,-0.973637 -0.62883,5.651157 4.048294,5.801777c4.156158,1.807705 2.333221,-8.774364 5.785858,-4.958717c-2.476471,4.183853 4.866882,8.348141 5.136353,2.361294c-0.35614,-4.522621 4.440308,-3.674034 2.572998,0.426754c0.152161,2.109165 3.589661,2.714256 3.645599,4.412472c-2.473114,5.363274 -4.62149,10.902458 -7.550262,16.037056c-0.660248,-1.989075 2.591797,-6.970795 3.631958,-9.898285c2.006042,-2.529205 3.729095,-9.344181 -1.499512,-8.415314c-3.032043,4.729706 -7.11084,-2.979782 -10.076904,1.551369c-2.522919,0.752365 -6.484253,-4.36459 -7.216064,0.554787c1.897675,5.84227 5.845703,10.8228 7.914246,16.604904c-0.700531,-0.414154 -1.101074,-1.138596 -1.540497,-1.789299l0,0zm-3.960999,-21.412411c-1.370789,-0.669079 0.580505,3.559944 0,0l0,0zm8.203583,0.499352c-1.780151,-3.015099 -0.827393,3.657848 0,0zm7.947937,0c-1.778564,-3.015099 -0.825562,3.657848 0,0zm-37.008804,-22.273357c-3.148376,-3.19627 -6.627182,-6.194321 -9.364502,-9.716782c6.838974,5.663086 13.100128,12.03931 19.263214,18.432297c1.636063,2.248871 -2.854706,-2.100708 -3.690948,-2.831425c-2.091095,-1.936272 -4.152435,-3.902985 -6.207764,-5.88409l0,0zm48.614853,9.133942c5.322754,-6.629574 10.286469,-13.58091 16.023468,-19.858345c-0.960876,2.703606 -4.052368,5.935965 -5.993866,8.721512c-3.249969,4.038174 -6.283508,8.310966 -9.998657,11.932484c-0.463654,0.488857 -1.154694,-0.67054 -0.030945,-0.79565l0,0l0,0zm-11.52713,-6.290409c1.840759,-5.259117 4.50824,-10.262936 7.480774,-14.969944c-0.06723,2.610441 -3.223267,7.561012 -4.739502,10.796383c-0.858521,1.30304 -1.578949,3.380413 -2.741272,4.173561zm-23.541183,-6.74419c-1.282684,-1.865913 -5.139267,-6.216862 -4.416718,-6.809687c3.718582,4.120005 7.496155,8.374777 10.167862,13.248365c-2.272522,-1.743099 -3.911621,-4.262856 -5.751144,-6.438679l0,0zm14.718124,-1.469648c-0.257843,-1.753349 0.543823,-10.128477 0.993652,-4.441124c0,3.563 0.370911,7.573099 -0.618805,10.81695c-0.425934,-2.085163 -0.323151,-4.257561 -0.374847,-6.375826z" stroke-linecap="null" stroke-linejoin="null" stroke-dasharray="null" stroke-width="0" stroke="#000000" fill="#ff5656"/>
 </g>
</svg>