<?xml version="1.0" encoding="UTF-8"?>
<svg width="400" height="300" xmlns="http://www.w3.org/2000/svg">
 <!-- Created with SVG-edit - http://svg-edit.googlecode.com/ -->
 <g>
  <title>Layer 1</title>
  <rect id="svg_1" height="307.999996" width="408" y="-4" x="-4" stroke-linecap="null" stroke-linejoin="null" stroke-dasharray="null" stroke-width="0" stroke="#000000" fill="#56aaff"/>
  <path id="svg_10" d="m203.93454,104.501953l-98.508759,0c-6.057861,0 -10.942139,4.594604 -11.58316,10.475952l9.373413,0c6.448853,0 11.681976,5.236938 11.681976,11.68338c0,6.414581 -5.233124,11.647736 -11.681976,11.647736l-9.480774,0l0,5.848511l9.480774,0c6.448853,0 11.681976,5.235443 11.681976,11.682739c0,6.449158 -5.233124,11.690399 -11.681976,11.690399l-9.480774,0l0,5.805328l9.480774,0c6.448853,0 11.681976,5.235962 11.681976,11.685852c0,6.446136 -5.233124,11.68689 -11.681976,11.68689l-9.480774,0l0,5.805725l9.480774,0c6.448853,0 11.681976,5.235535 11.681976,11.684906s-5.233124,11.688751 -11.681976,11.688751l-9.480774,0l0,5.805115l9.480774,0c6.448853,0 11.681976,5.236176 11.681976,11.685394c0,6.447205 -5.233124,11.688446 -11.681976,11.688446l-9.445984,0c0.111969,6.337341 5.275848,11.432159 11.655731,11.432159l98.508759,0c6.411987,0 11.648224,-5.23584 11.648224,-11.681854l0,-138.630646c0,-6.450043 -5.236237,-11.684784 -11.648224,-11.684784zm2.173218,40.86319c0,3.245331 -2.604736,5.8479 -5.845367,5.8479l-59.817139,0c-3.24176,0 -5.840637,-2.60257 -5.840637,-5.8479l0,-25.542328c0,-3.204956 2.598877,-5.807465 5.840637,-5.807465l59.817139,0c3.240631,0 5.845367,2.602509 5.845367,5.807465l0,25.542328zm-97.049286,98.013489c0,-3.24292 -2.599823,-5.843872 -5.842438,-5.843872l-18.954926,0c-3.245758,0 -5.845093,2.600952 -5.845093,5.843872c0,3.241272 2.638947,5.84021 5.845093,5.84021l18.954926,0c3.242615,0 5.842438,-2.598938 5.842438,-5.84021zm-24.797363,-110.909515l18.954926,0c3.242615,0 5.842438,-2.601685 5.842438,-5.807831c0,-3.240906 -2.599823,-5.839722 -5.842438,-5.839722l-18.954926,0c-3.245758,0 -5.845093,2.598816 -5.845093,5.839722c0,3.206146 2.599335,5.807831 5.845093,5.807831zm0,29.213989l18.954926,0c3.242615,0 5.842438,-2.634186 5.842438,-5.842834s-2.599823,-5.839935 -5.842438,-5.839935l-18.954926,0c-3.245758,0 -5.845093,2.599487 -5.845093,5.839935s2.599335,5.842834 5.845093,5.842834zm0,29.178833l18.954926,0c3.242615,0 5.842438,-2.633667 5.842438,-5.840088s-2.599823,-5.84314 -5.842438,-5.84314l-18.954926,0c-3.245758,0 -5.845093,2.598999 -5.845093,5.84314s2.599335,5.840088 5.845093,5.840088zm-5.845093,23.337433c0,3.206329 2.599335,5.840485 5.845093,5.840485l18.954926,0c3.242615,0 5.842438,-2.634155 5.842438,-5.840485c0,-3.242859 -2.599823,-5.842102 -5.842438,-5.842102l-18.954926,0c-3.245758,0 -5.845093,2.599243 -5.845093,5.842102z" stroke-linecap="null" stroke-linejoin="null" stroke-dasharray="null" stroke-width="0" stroke="#ffffff" fill="#4690db"/>
  <path id="svg_11" d="m271.923981,79.772461c-0.178162,-0.261932 -0.399414,-0.524261 -0.68988,-0.721527c-1.198486,-0.863922 -2.909698,-0.601242 -3.798798,0.601349c-0.888306,1.203674 -0.621002,2.877121 0.60025,3.751984c1.111847,0.787277 2.577271,0.601288 3.510773,-0.328262l-25.790161,35.009109l-8.019241,28.653839l25.190018,-16.393982l57.334106,-77.826599l-17.170715,-12.259933l-5.531494,7.513168c-0.311432,-1.246765 -1.02243,-2.416519 -2.17749,-3.24765c-2.643219,-1.892426 -6.375885,-1.323944 -8.285583,1.3013c-11.041107,14.983063 -4.932251,18.975433 -15.171783,33.947205zm-12.61731,46.854095l-12.950439,8.442719l4.110016,-14.754242l8.840424,6.311523zm15.237549,-47.608093c7.953491,-11.559998 7.19696,-14.698944 13.993805,-24.957794c1.134827,0.765457 2.423004,1.028061 3.688995,0.962082l-17.6828,23.995712z" stroke-linecap="null" stroke-linejoin="null" stroke-dasharray="null" stroke-width="0" stroke="#ffffff" fill="#4690db"/>
  <path id="svg_5" d="m193.032196,93.298828l-98.508759,0c-6.057861,0 -10.942139,4.594604 -11.58316,10.475952l9.373413,0c6.448853,0 11.681976,5.236938 11.681976,11.68338c0,6.414581 -5.233124,11.647736 -11.681976,11.647736l-9.480774,0l0,5.848511l9.480774,0c6.448853,0 11.681976,5.235443 11.681976,11.682739c0,6.449158 -5.233124,11.690399 -11.681976,11.690399l-9.480774,0l0,5.805328l9.480774,0c6.448853,0 11.681976,5.235962 11.681976,11.685852c0,6.446136 -5.233124,11.68689 -11.681976,11.68689l-9.480774,0l0,5.805725l9.480774,0c6.448853,0 11.681976,5.235535 11.681976,11.684906s-5.233124,11.688751 -11.681976,11.688751l-9.480774,0l0,5.805115l9.480774,0c6.448853,0 11.681976,5.236176 11.681976,11.685394c0,6.447205 -5.233124,11.688446 -11.681976,11.688446l-9.445984,0c0.111969,6.337341 5.275848,11.432159 11.655731,11.432159l98.508759,0c6.411987,0 11.648224,-5.23584 11.648224,-11.681854l0,-138.630646c0,-6.450043 -5.236237,-11.684784 -11.648224,-11.684784zm2.173218,40.86319c0,3.245331 -2.604736,5.8479 -5.845367,5.8479l-59.817139,0c-3.24176,0 -5.840637,-2.60257 -5.840637,-5.8479l0,-25.542328c0,-3.204956 2.598877,-5.807465 5.840637,-5.807465l59.817139,0c3.240631,0 5.845367,2.602509 5.845367,5.807465l0,25.542328zm-97.049286,98.013489c0,-3.24292 -2.599823,-5.843872 -5.842438,-5.843872l-18.954926,0c-3.245758,0 -5.845093,2.600952 -5.845093,5.843872c0,3.241272 2.638947,5.84021 5.845093,5.84021l18.954926,0c3.242615,0 5.842438,-2.598938 5.842438,-5.84021zm-24.797363,-110.909515l18.954926,0c3.242615,0 5.842438,-2.601685 5.842438,-5.807831c0,-3.240906 -2.599823,-5.839722 -5.842438,-5.839722l-18.954926,0c-3.245758,0 -5.845093,2.598816 -5.845093,5.839722c0,3.206146 2.599335,5.807831 5.845093,5.807831zm0,29.213989l18.954926,0c3.242615,0 5.842438,-2.634186 5.842438,-5.842834s-2.599823,-5.839935 -5.842438,-5.839935l-18.954926,0c-3.245758,0 -5.845093,2.599487 -5.845093,5.839935s2.599335,5.842834 5.845093,5.842834zm0,29.178833l18.954926,0c3.242615,0 5.842438,-2.633667 5.842438,-5.840088s-2.599823,-5.84314 -5.842438,-5.84314l-18.954926,0c-3.245758,0 -5.845093,2.598999 -5.845093,5.84314s2.599335,5.840088 5.845093,5.840088zm-5.845093,23.337433c0,3.206329 2.599335,5.840485 5.845093,5.840485l18.954926,0c3.242615,0 5.842438,-2.634155 5.842438,-5.840485c0,-3.242859 -2.599823,-5.842102 -5.842438,-5.842102l-18.954926,0c-3.245758,0 -5.845093,2.599243 -5.845093,5.842102z" stroke-linecap="null" stroke-linejoin="null" stroke-dasharray="null" stroke-width="3" stroke="#ffffff" fill="#ffffff"/>
  <path id="svg_6" d="m269.412262,72.282234c-0.178162,-0.261948 -0.399414,-0.524269 -0.68988,-0.721527c-1.198486,-0.86393 -2.909698,-0.60125 -3.798798,0.601341c-0.888306,1.203667 -0.621002,2.877121 0.60025,3.751984c1.111847,0.787277 2.577271,0.60128 3.510773,-0.328262l-25.790161,35.009117l-8.019241,28.653847l25.190018,-16.394005l57.334106,-77.826584l-17.170715,-12.259941l-5.531494,7.513172c-0.311432,-1.246769 -1.02243,-2.416527 -2.17749,-3.247662c-2.643219,-1.892422 -6.375885,-1.323936 -8.285583,1.301308c-11.041107,14.98307 -4.932251,18.975437 -15.171783,33.947212zm-12.61731,46.854088l-12.950439,8.442726l4.110016,-14.75425l8.840424,6.311523zm15.237549,-47.608086c7.953491,-11.560009 7.19696,-14.698944 13.993805,-24.957794c1.134827,0.765453 2.423004,1.028057 3.688995,0.962074l-17.6828,23.99572z" stroke-linecap="null" stroke-linejoin="null" stroke-dasharray="null" stroke-width="0" stroke="#ffffff" fill="#ffffff"/>
  <path id="svg_12" transform="rotate(35, 304.16, 166.414)" d="m335.229095,124.781448l-11.041443,-6.936539c-2.788574,-1.751907 -6.456177,-0.913269 -8.211823,1.875168l-4.343445,6.934296l21.124634,13.273697l4.343842,-6.934784c1.754883,-2.790649 0.916443,-6.458405 -1.871765,-8.211838zm-61.223633,61.780579l21.125,13.272934l34.477417,-54.845444l-21.163422,-13.272934l-34.438995,54.845444zm-3.228027,16.859726l-0.477386,12.476654l11.040009,-5.860016l10.243896,-5.381042l-20.367279,-12.834808l-0.43924,11.599213z" stroke-linecap="null" stroke-linejoin="null" stroke-dasharray="null" stroke-width="0" stroke="#ffffff" fill="#4690db"/>
  <path transform="rotate(35, 305.289, 159.02)" id="svg_9" d="m336.358002,117.386917l-11.041443,-6.936539c-2.788574,-1.751907 -6.456177,-0.913269 -8.211823,1.875168l-4.343445,6.934296l21.124634,13.273697l4.343842,-6.934784c1.754883,-2.790649 0.916443,-6.458405 -1.871765,-8.211838zm-61.223633,61.780579l21.125,13.272934l34.477417,-54.845444l-21.163422,-13.272934l-34.438995,54.845444zm-3.228027,16.859726l-0.477386,12.476654l11.040009,-5.860016l10.243896,-5.381058l-20.367279,-12.834793l-0.43924,11.599213z" stroke-linecap="null" stroke-linejoin="null" stroke-dasharray="null" stroke-width="0" stroke="#ffffff" fill="#ffffff"/>
 </g>
</svg>